<?xml version="1.0" encoding="UTF-8" standalone="no"?>
<svg
   xmlns:dc="http://purl.org/dc/elements/1.1/"
   xmlns:cc="http://creativecommons.org/ns#"
   xmlns:rdf="http://www.w3.org/1999/02/22-rdf-syntax-ns#"
   xmlns:svg="http://www.w3.org/2000/svg"
   xmlns="http://www.w3.org/2000/svg"
   version="1.1"
   id="svg7918"
   viewBox="0 0 500 176.43242"
   height="176.43242"
   width="500">
  <defs
     id="defs7920" />
  <metadata
     id="metadata7923">
    <rdf:RDF>
      <cc:Work
         rdf:about="">
        <dc:format>image/svg+xml</dc:format>
        <dc:type
           rdf:resource="http://purl.org/dc/dcmitype/StillImage" />
        <dc:title></dc:title>
      </cc:Work>
    </rdf:RDF>
  </metadata>
  <g
     transform="translate(-185.48638,-459.95191)"
     id="layer1">
    <g
       transform="matrix(12.478856,0,0,-12.478856,434.80064,525.60755)"
       id="g5772">
      <path
         id="path5774"
         style="fill:#023894;fill-opacity:1;fill-rule:nonzero;stroke:none"
         d="m 0,0 0,0.655 0,0.004 c 0,0.75 0.182,0.769 0.357,0.949 l 0,0.005 -5.359,0 0,-10.127 5.002,0 0,1.724 -2.978,0 0,2.697 2.439,0 0,1.72 -2.439,0 0,2.265 2.978,0 L 0,0 Z" />
    </g>
    <g
       transform="matrix(12.478856,0,0,-12.478856,518.71346,505.55144)"
       id="g5776">
      <path
         id="path5778"
         style="fill:#023894;fill-opacity:1;fill-rule:nonzero;stroke:none"
         d="m 0,0 -5.839,0 0,-1.724 1.728,0 0,-8.4 2.022,0 0,8.4 1.731,0 0,0.652 0.002,0 c -0.011,0.649 0.129,0.776 0.356,1.07 L 0,0 Z" />
    </g>
    <g
       transform="matrix(12.478856,0,0,-12.478856,684.48638,505.58009)"
       id="g5780">
      <path
         id="path5782"
         style="fill:#023894;fill-opacity:1;fill-rule:nonzero;stroke:none"
         d="M 0,0 -2.382,0 -2.385,-4.66 -3.811,0 l -2.027,0 0,-10.119 2.027,0 0,4.67 1.429,-4.67 2.024,0 0,9.05 0.002,0 c 0,0.372 0.04,0.95 0.356,1.069" />
    </g>
    <g
       transform="matrix(12.478856,0,0,-12.478856,555.41617,527.78626)"
       id="g5784">
      <path
         id="path5786"
         style="fill:#023894;fill-opacity:1;fill-rule:nonzero;stroke:none"
         d="m 0,0 -0.591,-4.536 1.159,0 L 0,0 Z M 1.784,1.785 C 1.568,1.635 1.548,1.301 1.599,0.715 l 0.003,0 1.475,-9.051 -2.083,0 -0.238,2.139 -1.512,0 -0.259,-2.139 -2.085,0 1.668,10.119 3.216,0 0,0.002 z" />
    </g>
    <g
       transform="matrix(12.478856,0,0,-12.478856,353.70934,599.2377)"
       id="g5788">
      <path
         id="path5790"
         style="fill:#023894;fill-opacity:1;fill-rule:nonzero;stroke:none"
         d="m 0,0 c -0.062,-3.793 -5.45,-3.991 -5.598,0.179 l 1.793,0.657 c 0.08,-2.307 1.025,-2.098 1.317,-2.076 0.674,0.053 0.775,0.985 0.524,1.472 -0.325,0.624 -0.923,1.155 -1.847,1.911 -0.975,0.801 -1.681,1.89 -1.659,2.982 0.048,2.48 3.697,3.771 4.985,0.899 C -0.27,5.701 -0.25,5.469 0.111,5.246 L -1.792,4.531 C -2.057,6.586 -3.575,6.105 -3.61,5.167 -3.656,4.044 -2.651,3.467 -1.858,2.891 -1.059,2.31 0.021,1.229 0,0" />
    </g>
    <g
       transform="matrix(12.478856,0,0,-12.478856,234.77955,507.61035)"
       id="g5792">
      <path
         id="path5794"
         style="fill:#023894;fill-opacity:1;fill-rule:nonzero;stroke:none"
         d="m 0,0 c -0.751,0 -1.362,0.61 -1.362,1.361 0,0.752 0.611,1.363 1.362,1.363 0.753,0 1.361,-0.611 1.361,-1.363 C 1.361,0.61 0.753,0 0,0 m 2.327,-6.567 0.002,-10e-4 0,8.878 -0.002,0 c 0,0.59 0.341,1.26 0.769,1.429 l -6.191,0 C -2.665,3.57 -2.313,2.9 -2.313,2.31 l -10e-4,0.006 0,-8.88 10e-4,0 C -2.377,-7.549 -2.714,-9.376 -3.87,-9.956 l 7.74,0 0,0.003 c -1.158,0.577 -1.478,2.402 -1.543,3.386" />
    </g>
    <path
       id="path8494"
       d="m 224.14286,501.50506 c -6.87693,-6.87692 -7.14477,-10.97195 -1.26656,-19.36427 5.70928,-8.15114 19.84227,-8.63565 24.02317,-0.82356 4.706,8.79323 3.46329,16.65252 -3.39234,21.45439 -8.39232,5.87821 -12.48735,5.61037 -19.36427,-1.26656 z"
       style="opacity:1;fill:#ffff00;fill-opacity:1;stroke:none;stroke-width:57.1428566;stroke-linejoin:miter;stroke-miterlimit:4;stroke-dasharray:none;stroke-opacity:1" />
    <path
       id="path8496"
       d="m 232.36912,507.3973 c -1.25709,-0.19472 -3.00728,-0.69209 -4.1133,-1.16892 -2.33947,-1.00861 -3.9193,-2.10819 -5.71121,-3.97512 -2.25023,-2.34442 -3.66826,-5.03448 -4.38827,-8.32475 -0.31638,-1.44575 -0.31524,-5.15364 0.002,-6.61676 0.74114,-3.41789 2.33683,-6.3373 4.78648,-8.75715 2.52028,-2.48963 5.74939,-4.1136 9.29959,-4.67692 1.47361,-0.23382 4.58987,-0.16056 5.95946,0.14011 6.70873,1.47277 11.71469,6.5186 13.18892,13.29396 0.31639,1.45405 0.31639,5.16271 0,6.61676 -1.12402,5.16586 -4.27584,9.32803 -8.88175,11.72893 -1.35413,0.70586 -2.58137,1.15308 -4.17612,1.52183 -1.19029,0.27523 -4.75541,0.40552 -5.96583,0.21803 z m 3.42868,-0.67707 c 1.73354,-0.36102 3.80728,-1.33507 6.26646,-2.94339 3.4847,-2.27901 5.00585,-3.85592 6.30873,-6.53996 1.05918,-2.18197 1.46394,-4.18919 1.34642,-6.67691 -0.1278,-2.70547 -0.84506,-5.26433 -2.30995,-8.24086 -1.36582,-2.77525 -2.58073,-4.03591 -5.05327,-5.24358 -5.60308,-2.73672 -13.4962,-1.28256 -18.04748,3.3249 -1.94291,1.96689 -4.30566,5.89338 -5.17237,8.59558 -0.44132,1.37593 -0.5503,3.44263 -0.24896,4.72109 0.52238,2.2162 2.21055,4.74821 5.10964,7.66372 4.78315,4.81025 7.79598,6.17344 11.80078,5.33941 z"
       style="opacity:1;fill:#ffff00;fill-opacity:1;stroke:none;stroke-width:20;stroke-linejoin:miter;stroke-miterlimit:4;stroke-dasharray:none;stroke-opacity:1" />
  </g>
</svg>
